<svg width="1440" height="1024" viewBox="0 0 1440 1024" fill="none" xmlns="http://www.w3.org/2000/svg">
<rect width="1440" height="1024" fill="url(#paint0_linear)"/>
<ellipse cx="24.7036" cy="6.06519" rx="1.7037" ry="1.01087" fill="white"/>
<ellipse cx="280.258" cy="11.1194" rx="1.70369" ry="1.01084" fill="white"/>
<ellipse cx="535.812" cy="6.06519" rx="1.70369" ry="1.01087" fill="white"/>
<ellipse cx="791.366" cy="1.01086" rx="1.70369" ry="1.01086" fill="white"/>
<ellipse cx="1046.92" cy="6.06519" rx="1.70369" ry="1.01087" fill="white"/>
<ellipse cx="1302.47" cy="11.1194" rx="1.70369" ry="1.01084" fill="white"/>
<ellipse cx="58.7774" cy="107.151" rx="1.70369" ry="1.01086" fill="white"/>
<ellipse cx="314.332" cy="112.205" rx="1.70369" ry="1.01086" fill="white"/>
<ellipse cx="569.886" cy="107.151" rx="1.70369" ry="1.01086" fill="white"/>
<ellipse cx="825.44" cy="102.097" rx="1.70369" ry="1.01086" fill="white"/>
<ellipse cx="1080.99" cy="107.151" rx="1.70369" ry="1.01086" fill="white"/>
<ellipse cx="1336.55" cy="112.205" rx="1.70369" ry="1.01086" fill="white"/>
<ellipse cx="7.66665" cy="208.237" rx="1.70369" ry="1.01086" fill="white"/>
<ellipse cx="263.221" cy="213.291" rx="1.70371" ry="1.01086" fill="white"/>
<ellipse cx="518.775" cy="208.237" rx="1.70369" ry="1.01086" fill="white"/>
<ellipse cx="774.329" cy="203.183" rx="1.70369" ry="1.01086" fill="white"/>
<ellipse cx="1029.88" cy="208.237" rx="1.70369" ry="1.01086" fill="white"/>
<ellipse cx="1285.44" cy="213.291" rx="1.70369" ry="1.01086" fill="white"/>
<ellipse cx="109.888" cy="309.323" rx="1.70369" ry="1.01086" fill="white"/>
<ellipse cx="365.442" cy="314.377" rx="1.70369" ry="1.01086" fill="white"/>
<ellipse cx="620.996" cy="309.323" rx="1.70369" ry="1.01086" fill="white"/>
<ellipse cx="876.55" cy="304.269" rx="1.70369" ry="1.01086" fill="white"/>
<ellipse cx="1132.1" cy="309.323" rx="1.70369" ry="1.01086" fill="white"/>
<ellipse cx="1387.66" cy="314.377" rx="1.70369" ry="1.01086" fill="white"/>
<ellipse cx="67.296" cy="411.419" rx="1.70369" ry="1.01086" fill="white"/>
<ellipse cx="322.85" cy="416.474" rx="1.70369" ry="1.01086" fill="white"/>
<ellipse cx="578.404" cy="411.419" rx="1.70369" ry="1.01086" fill="white"/>
<ellipse cx="833.958" cy="406.365" rx="1.70369" ry="1.01086" fill="white"/>
<ellipse cx="1089.51" cy="411.419" rx="1.70369" ry="1.01086" fill="white"/>
<ellipse cx="1345.07" cy="415.463" rx="1.70369" ry="1.01086" fill="white"/>
<ellipse cx="24.7036" cy="512.505" rx="1.7037" ry="1.01085" fill="white"/>
<ellipse cx="280.258" cy="517.56" rx="1.70369" ry="1.01087" fill="white"/>
<ellipse cx="535.812" cy="512.505" rx="1.70369" ry="1.01085" fill="white"/>
<ellipse cx="791.366" cy="507.451" rx="1.70369" ry="1.01087" fill="white"/>
<ellipse cx="1046.92" cy="512.505" rx="1.70369" ry="1.01085" fill="white"/>
<ellipse cx="1302.47" cy="516.549" rx="1.70369" ry="1.01085" fill="white"/>
<ellipse cx="160.999" cy="613.591" rx="1.70369" ry="1.01086" fill="white"/>
<ellipse cx="416.553" cy="618.645" rx="1.70369" ry="1.01086" fill="white"/>
<ellipse cx="672.107" cy="613.591" rx="1.70369" ry="1.01086" fill="white"/>
<ellipse cx="927.661" cy="608.537" rx="1.70369" ry="1.01086" fill="white"/>
<ellipse cx="1183.22" cy="613.591" rx="1.70369" ry="1.01086" fill="white"/>
<ellipse cx="1438.77" cy="617.635" rx="1.70369" ry="1.01086" fill="white"/>
<ellipse cx="1.70369" cy="714.677" rx="1.70369" ry="1.01086" fill="white"/>
<ellipse cx="257.258" cy="719.731" rx="1.70369" ry="1.01092" fill="white"/>
<ellipse cx="512.812" cy="714.677" rx="1.70369" ry="1.01086" fill="white"/>
<ellipse cx="768.366" cy="709.623" rx="1.70369" ry="1.01086" fill="white"/>
<ellipse cx="1023.92" cy="714.677" rx="1.70369" ry="1.01086" fill="white"/>
<ellipse cx="1279.47" cy="718.721" rx="1.70369" ry="1.01081" fill="white"/>
<ellipse cx="21.2962" cy="801.611" rx="1.70369" ry="1.01086" fill="white"/>
<ellipse cx="276.85" cy="806.665" rx="1.7037" ry="1.01086" fill="white"/>
<ellipse cx="532.404" cy="801.611" rx="1.70369" ry="1.01086" fill="white"/>
<ellipse cx="787.958" cy="796.557" rx="1.70367" ry="1.01086" fill="white"/>
<ellipse cx="1043.51" cy="801.611" rx="1.70369" ry="1.01086" fill="white"/>
<ellipse cx="1299.07" cy="806.665" rx="1.70369" ry="1.01086" fill="white"/>
<ellipse cx="83.481" cy="909.773" rx="1.70369" ry="1.01086" fill="white"/>
<ellipse cx="339.035" cy="914.827" rx="1.70369" ry="1.01086" fill="white"/>
<ellipse cx="594.589" cy="909.773" rx="1.70369" ry="1.01086" fill="white"/>
<ellipse cx="850.143" cy="904.719" rx="1.70369" ry="1.01086" fill="white"/>
<ellipse cx="1105.7" cy="909.773" rx="1.70369" ry="1.01086" fill="white"/>
<ellipse cx="1361.25" cy="914.827" rx="1.70369" ry="1.01086" fill="white"/>
<ellipse cx="26.4072" cy="1017.93" rx="1.70369" ry="1.01086" fill="white"/>
<ellipse cx="281.961" cy="1022.99" rx="1.70371" ry="1.01086" fill="white"/>
<ellipse cx="537.515" cy="1017.93" rx="1.70369" ry="1.01086" fill="white"/>
<ellipse cx="793.069" cy="1012.88" rx="1.70369" ry="1.01086" fill="white"/>
<ellipse cx="1048.62" cy="1017.93" rx="1.70369" ry="1.01086" fill="white"/>
<ellipse cx="1304.18" cy="1022.99" rx="1.70369" ry="1.01086" fill="white"/>
<defs>
<linearGradient id="paint0_linear" x1="1.55988e-05" y1="474.5" x2="1424" y2="474.5" gradientUnits="userSpaceOnUse">
<stop stop-color="#050E15"/>
<stop offset="0.864583" stop-color="#275A80"/>
</linearGradient>
</defs>
</svg>
